<svg width="29" height="31" viewBox="0 0 29 31" fill="none" xmlns="http://www.w3.org/2000/svg">
<path d="M23.9885 3.09524H22.4511V1.54762C22.4511 1.13716 22.2891 0.743522 22.0008 0.453287C21.7125 0.163052 21.3215 0 20.9137 0C20.506 0 20.115 0.163052 19.8266 0.453287C19.5383 0.743522 19.3763 1.13716 19.3763 1.54762V3.09524H10.152V1.54762C10.152 1.13716 9.99007 0.743522 9.70175 0.453287C9.41343 0.163052 9.0224 0 8.61466 0C8.20692 0 7.81588 0.163052 7.52756 0.453287C7.23925 0.743522 7.07727 1.13716 7.07727 1.54762V3.09524H5.53989C4.31667 3.09524 3.14355 3.58439 2.2786 4.4551C1.41366 5.3258 0.927734 6.50673 0.927734 7.73809V26.3095C0.927734 27.5409 1.41366 28.7218 2.2786 29.5925C3.14355 30.4632 4.31667 30.9524 5.53989 30.9524H23.9885C25.2117 30.9524 26.3848 30.4632 27.2498 29.5925C28.1147 28.7218 28.6007 27.5409 28.6007 26.3095V7.73809C28.6007 6.50673 28.1147 5.3258 27.2498 4.4551C26.3848 3.58439 25.2117 3.09524 23.9885 3.09524ZM5.53989 6.19048H7.07727V7.73809C7.07727 8.14855 7.23925 8.54219 7.52756 8.83243C7.81588 9.12266 8.20692 9.28571 8.61466 9.28571C9.0224 9.28571 9.41343 9.12266 9.70175 8.83243C9.99007 8.54219 10.152 8.14855 10.152 7.73809V6.19048H19.3763V7.73809C19.3763 8.14855 19.5383 8.54219 19.8266 8.83243C20.115 9.12266 20.506 9.28571 20.9137 9.28571C21.3215 9.28571 21.7125 9.12266 22.0008 8.83243C22.2891 8.54219 22.4511 8.14855 22.4511 7.73809V6.19048H23.9885C24.3962 6.19048 24.7873 6.35353 25.0756 6.64376C25.3639 6.934 25.5259 7.32764 25.5259 7.73809V13.9286H4.0025V7.73809C4.0025 7.32764 4.16448 6.934 4.45279 6.64376C4.74111 6.35353 5.13215 6.19048 5.53989 6.19048ZM23.9885 27.8571H5.53989C5.13215 27.8571 4.74111 27.6941 4.45279 27.4039C4.16448 27.1136 4.0025 26.72 4.0025 26.3095V17.0238H25.5259V26.3095C25.5259 26.72 25.3639 27.1136 25.0756 27.4039C24.7873 27.6941 24.3962 27.8571 23.9885 27.8571Z" fill="#FF9900"/>
<path d="M8.61478 23.2144C9.46385 23.2144 10.1522 22.5215 10.1522 21.6668C10.1522 20.812 9.46385 20.1191 8.61478 20.1191C7.7657 20.1191 7.07739 20.812 7.07739 21.6668C7.07739 22.5215 7.7657 23.2144 8.61478 23.2144Z" fill="#FF9900"/>
<path d="M20.9137 20.1191H14.7642C14.3565 20.1191 13.9654 20.2822 13.6771 20.5724C13.3888 20.8627 13.2268 21.2563 13.2268 21.6668C13.2268 22.0772 13.3888 22.4709 13.6771 22.7611C13.9654 23.0513 14.3565 23.2144 14.7642 23.2144H20.9137C21.3215 23.2144 21.7125 23.0513 22.0008 22.7611C22.2891 22.4709 22.4511 22.0772 22.4511 21.6668C22.4511 21.2563 22.2891 20.8627 22.0008 20.5724C21.7125 20.2822 21.3215 20.1191 20.9137 20.1191Z" fill="#FF9900"/>
</svg>
