<svg width="36" height="33" viewBox="0 0 36 33" fill="none" xmlns="http://www.w3.org/2000/svg">
<path d="M34.8198 9.94594L34.8201 9.95098C34.9838 12.6289 34.9838 20.6888 34.8201 23.3668L34.8199 23.3703C34.6824 25.9175 34.0629 28.0894 32.1361 29.8787L32.1354 29.8794C30.202 31.6816 27.8437 32.264 25.0803 32.3855L25.0759 32.3857C22.1878 32.538 13.4963 32.538 10.6081 32.3857L10.6051 32.3856C7.84125 32.2569 5.48932 31.6747 3.54727 29.8781C1.61328 28.0889 0.994068 25.9177 0.864249 23.3718L0.864274 23.3718L0.863966 23.3668C0.700292 20.6888 0.700292 12.6216 0.863966 9.94368L0.863979 9.94368L0.86417 9.94014C1.00176 7.3919 1.61383 5.22104 3.54727 3.43241C5.48911 1.63601 7.84858 1.05374 10.6038 0.932245L10.6038 0.932263L10.6081 0.932037C13.4963 0.779816 22.1878 0.779816 25.0759 0.932047L25.079 0.932189C27.8435 1.06091 30.2024 1.64339 32.1361 3.43906L32.1368 3.4397C34.0708 5.22883 34.69 7.40012 34.8198 9.94594ZM28.3927 29.8683L28.3944 29.8677C30.0608 29.2471 31.3549 28.0529 32.0249 26.4894C32.5265 25.319 32.7015 23.4133 32.763 21.58C32.8077 20.2494 32.7929 18.8951 32.781 17.8047C32.7764 17.3762 32.7721 16.9884 32.7721 16.6589C32.7721 16.3293 32.7764 15.9416 32.781 15.5132C32.7929 14.4235 32.8077 13.0704 32.763 11.7405C32.7015 9.90779 32.5265 8.00264 32.0252 6.8289L32.0244 6.82706C31.3469 5.2582 30.0537 4.06326 28.3933 3.44962L28.3919 3.44914C27.1502 2.99417 25.1173 2.8315 23.1419 2.77343C21.7008 2.73108 20.2363 2.74412 19.0582 2.7546C18.6061 2.75863 18.1962 2.76228 17.846 2.76228C17.4892 2.76228 17.0704 2.75834 16.6082 2.754C15.4353 2.74297 13.9827 2.72931 12.5532 2.77069C10.5786 2.82785 8.54528 2.99048 7.29917 3.44943L7.29748 3.45005C5.63106 4.07062 4.33699 5.26486 3.66697 6.82834L3.66636 6.82976C3.16941 7.99938 2.99433 9.90407 2.93183 11.7375C2.88614 13.0782 2.90022 14.4421 2.91152 15.5366C2.91584 15.9557 2.91976 16.3352 2.91976 16.6589C2.91976 16.9885 2.91554 17.3762 2.91087 17.8046C2.89899 18.8943 2.88424 20.2474 2.92888 21.5772C2.9904 23.41 3.16543 25.3151 3.66672 26.4889L3.66752 26.4907C4.34501 28.0596 5.63818 29.2545 7.29865 29.8682L7.29996 29.8686C8.54168 30.3236 10.5746 30.4863 12.55 30.5443C13.9911 30.5867 15.4556 30.5737 16.6337 30.5632C17.0858 30.5591 17.4957 30.5555 17.846 30.5555C18.2027 30.5555 18.6215 30.5594 19.0837 30.5638C20.2566 30.5748 21.7092 30.5885 23.1387 30.5471C25.1133 30.4899 27.1466 30.3273 28.3927 29.8683ZM9.32271 16.6589C9.32271 12.3311 13.092 8.77962 17.846 8.77962C22.5999 8.77962 26.3692 12.3311 26.3692 16.6589C26.3692 20.9867 22.5999 24.5381 17.846 24.5381C13.092 24.5381 9.32271 20.9867 9.32271 16.6589ZM11.4797 16.6589C11.4797 19.9742 14.3781 22.6065 17.846 22.6065C21.3138 22.6065 24.2122 19.9742 24.2122 16.6589C24.2122 13.3439 21.3221 10.7113 17.846 10.7113C14.3698 10.7113 11.4797 13.3439 11.4797 16.6589ZM28.8429 7.93687C28.8429 8.71195 28.1612 9.3913 27.2383 9.3913C26.3101 9.3913 25.6337 8.70699 25.6337 7.93687C25.6337 7.16792 26.3167 6.48244 27.2383 6.48244C28.1599 6.48244 28.8429 7.16792 28.8429 7.93687Z" fill="white" stroke="white"/>
</svg>
