<svg width="22" height="31" viewBox="0 0 22 31" fill="none" xmlns="http://www.w3.org/2000/svg">
<path d="M10.2295 29.868C2.31944 17.3271 0.851196 16.0401 0.851196 11.4311C0.851196 5.11787 5.5309 0 11.3037 0C17.0764 0 21.7561 5.11787 21.7561 11.4311C21.7561 16.0401 20.2879 17.3271 12.3779 29.868C11.8588 30.688 10.7485 30.688 10.2295 29.868ZM11.3037 16.1941C13.709 16.1941 15.6589 14.0616 15.6589 11.4311C15.6589 8.80059 13.709 6.66815 11.3037 6.66815C8.89834 6.66815 6.94847 8.80059 6.94847 11.4311C6.94847 14.0616 8.89834 16.1941 11.3037 16.1941Z" fill="#FF9900"/>
</svg>
