<svg width="15" height="14" viewBox="0 0 15 14" fill="none" xmlns="http://www.w3.org/2000/svg">
<mask id="path-1-inside-1_38_26" fill="white">
<path d="M14.7701 12.2827L11.3697 9.31785C12.1883 8.36759 12.6303 7.21094 12.6288 6.02245C12.6288 2.9867 9.79614 0.516876 6.3144 0.516876C2.83266 0.516876 0 2.9867 0 6.02245C0 9.0582 2.83266 11.528 6.3144 11.528C7.67749 11.5293 9.00407 11.144 10.0939 10.4302L13.4944 13.395C13.6665 13.5292 13.891 13.6008 14.1218 13.5952C14.3526 13.5895 14.5721 13.5071 14.7354 13.3648C14.8986 13.2224 14.9932 13.031 14.9996 12.8298C15.0061 12.6285 14.924 12.4328 14.7701 12.2827ZM1.80411 6.02245C1.80411 5.24466 2.06864 4.48434 2.56423 3.83764C3.05983 3.19093 3.76424 2.68689 4.58839 2.38924C5.41253 2.0916 6.3194 2.01372 7.19431 2.16546C8.06922 2.3172 8.87288 2.69174 9.50365 3.24171C10.1344 3.79169 10.564 4.4924 10.738 5.25525C10.9121 6.01809 10.8227 6.80879 10.4814 7.52737C10.14 8.24595 9.56189 8.86013 8.82018 9.29224C8.07847 9.72436 7.20645 9.955 6.3144 9.955C5.11864 9.95375 3.97226 9.53903 3.12673 8.8018C2.2812 8.06457 1.80555 7.06504 1.80411 6.02245Z"/>
</mask>
<path d="M14.7701 12.2827L11.3697 9.31785C12.1883 8.36759 12.6303 7.21094 12.6288 6.02245C12.6288 2.9867 9.79614 0.516876 6.3144 0.516876C2.83266 0.516876 0 2.9867 0 6.02245C0 9.0582 2.83266 11.528 6.3144 11.528C7.67749 11.5293 9.00407 11.144 10.0939 10.4302L13.4944 13.395C13.6665 13.5292 13.891 13.6008 14.1218 13.5952C14.3526 13.5895 14.5721 13.5071 14.7354 13.3648C14.8986 13.2224 14.9932 13.031 14.9996 12.8298C15.0061 12.6285 14.924 12.4328 14.7701 12.2827ZM1.80411 6.02245C1.80411 5.24466 2.06864 4.48434 2.56423 3.83764C3.05983 3.19093 3.76424 2.68689 4.58839 2.38924C5.41253 2.0916 6.3194 2.01372 7.19431 2.16546C8.06922 2.3172 8.87288 2.69174 9.50365 3.24171C10.1344 3.79169 10.564 4.4924 10.738 5.25525C10.9121 6.01809 10.8227 6.80879 10.4814 7.52737C10.14 8.24595 9.56189 8.86013 8.82018 9.29224C8.07847 9.72436 7.20645 9.955 6.3144 9.955C5.11864 9.95375 3.97226 9.53903 3.12673 8.8018C2.2812 8.06457 1.80555 7.06504 1.80411 6.02245Z" fill="black"/>
<path d="M14.7701 12.2827L30.8297 -4.18212L30.3697 -4.6308L29.8853 -5.0531L14.7701 12.2827ZM11.3697 9.31785L-6.05544 -5.69433L-20.9789 11.6278L-3.74554 26.6537L11.3697 9.31785ZM12.6288 6.02245H-10.3712V6.03686L-10.3712 6.05128L12.6288 6.02245ZM6.3144 11.528L6.33631 -11.472L6.32536 -11.472H6.3144V11.528ZM10.0939 10.4302L25.2091 -6.90563L12.0724 -18.3596L-2.50769 -8.81038L10.0939 10.4302ZM13.4944 13.395L-1.62086 30.7308L-1.14385 31.1468L-0.644688 31.5358L13.4944 13.395ZM1.80411 6.02245H-21.1959V6.03827L-21.1959 6.0541L1.80411 6.02245ZM6.3144 9.955L6.29034 32.955L6.30237 32.955H6.3144V9.955ZM29.8853 -5.0531L26.4849 -8.01795L-3.74554 26.6537L-0.34512 29.6185L29.8853 -5.0531ZM28.7948 24.33C32.9997 19.4493 35.6376 13.0258 35.6288 5.99362L-10.3712 6.05128C-10.377 1.3961 -8.62296 -2.71412 -6.05544 -5.69433L28.7948 24.33ZM35.6288 6.02245C35.6288 -12.5755 19.4367 -22.4831 6.3144 -22.4831V23.5169C0.155556 23.5169 -10.3712 18.5488 -10.3712 6.02245H35.6288ZM6.3144 -22.4831C-6.80792 -22.4831 -23 -12.5755 -23 6.02245H23C23 18.5488 12.4732 23.5169 6.3144 23.5169V-22.4831ZM-23 6.02245C-23 24.6204 -6.80792 34.528 6.3144 34.528V-11.472C12.4732 -11.472 23 -6.50395 23 6.02245H-23ZM6.29248 34.528C11.9212 34.5334 17.6754 32.9587 22.6956 29.6707L-2.50769 -8.81038C0.332712 -10.6707 3.43377 -11.4747 6.33631 -11.472L6.29248 34.528ZM-5.02128 27.766L-1.62086 30.7308L28.6096 -3.94077L25.2091 -6.90563L-5.02128 27.766ZM-0.644688 31.5358C3.97389 35.1356 9.47001 36.7155 14.6828 36.5883L13.5607 -9.39798C18.312 -9.51392 23.3591 -8.07717 27.6334 -4.74573L-0.644688 31.5358ZM14.6828 36.5883C19.8955 36.4611 25.3661 34.6107 29.8506 30.7006L-0.379849 -3.97105C3.77818 -7.59647 8.80957 -9.28204 13.5607 -9.39798L14.6828 36.5883ZM29.8506 30.7006C34.4211 26.7155 37.7596 20.6772 37.9878 13.5676L-7.98852 12.0919C-7.77323 5.3848 -4.62388 -0.270648 -0.379849 -3.97105L29.8506 30.7006ZM37.9878 13.5676C38.2166 6.43926 35.2537 0.133071 30.8297 -4.18212L-1.28946 28.7475C-5.40581 24.7325 -8.2044 18.8178 -7.98852 12.0919L37.9878 13.5676ZM24.8041 6.02245C24.8041 10.5549 23.2443 14.6644 20.82 17.8278L-15.6916 -10.1525C-19.107 -5.69573 -21.1959 -0.0655569 -21.1959 6.02245H24.8041ZM20.82 17.8278C18.4343 20.9409 15.3915 22.9417 12.4011 24.0217L-3.22429 -19.2432C-7.86297 -17.5679 -12.3147 -14.5591 -15.6916 -10.1525L20.82 17.8278ZM12.4011 24.0217C9.41438 25.1003 6.27114 25.3487 3.26402 24.8272L11.1246 -20.4962C6.36767 -21.3213 1.41069 -20.9171 -3.22429 -19.2432L12.4011 24.0217ZM3.26402 24.8272C0.257462 24.3057 -2.87541 22.9632 -5.61157 20.5775L24.6189 -14.0941C20.6212 -17.5797 15.881 -19.6713 11.1246 -20.4962L3.26402 24.8272ZM-5.61157 20.5775C-8.37786 18.1656 -10.7005 14.6903 -11.6859 10.3709L33.1619 0.139581C31.8284 -5.70545 28.6467 -10.5822 24.6189 -14.0941L-5.61157 20.5775ZM-11.6859 10.3709C-12.682 6.00452 -12.1294 1.52246 -10.2935 -2.34206L31.2562 17.3968C33.7749 12.0951 34.5061 6.03165 33.1619 0.139581L-11.6859 10.3709ZM-10.2935 -2.34206C-8.48802 -6.14253 -5.68722 -8.87446 -2.75783 -10.5811L20.3982 29.1656C24.811 26.5947 28.768 22.6344 31.2562 17.3968L-10.2935 -2.34206ZM-2.75783 -10.5811C0.15648 -12.2789 3.30498 -13.045 6.3144 -13.045V32.955C11.1079 32.955 16.0005 31.7277 20.3982 29.1656L-2.75783 -10.5811ZM6.33846 -13.045C10.2945 -13.0409 14.6151 -11.6963 18.2419 -8.53401L-11.9885 26.1376C-6.67056 30.7743 -0.0571775 32.9483 6.29034 32.955L6.33846 -13.045ZM18.2419 -8.53401C21.9683 -5.28495 24.7956 -0.151175 24.8041 5.9908L-21.1959 6.0541C-21.1845 14.2813 -17.4059 21.4141 -11.9885 26.1376L18.2419 -8.53401Z" fill="white" mask="url(#path-1-inside-1_38_26)"/>
</svg>
