<svg width="31" height="29" viewBox="0 0 31 29" fill="none" xmlns="http://www.w3.org/2000/svg">
<path d="M29.9888 20.1254L23.3243 17.572C23.0396 17.4636 22.7231 17.4407 22.4227 17.5069C22.1222 17.5731 21.8539 17.7248 21.6581 17.9391L18.7067 21.1626C14.0746 19.2103 10.3469 15.8779 8.16297 11.7371L11.769 9.0987C12.0092 8.92405 12.1792 8.6842 12.2533 8.41545C12.3274 8.1467 12.3015 7.86369 12.1796 7.60926L9.32332 1.65149C9.1895 1.37723 8.95282 1.1533 8.65409 1.01832C8.35537 0.883343 8.01332 0.845774 7.68693 0.912093L1.4984 2.18876C1.18372 2.25372 0.902956 2.41211 0.701942 2.63808C0.500927 2.86405 0.391529 3.14426 0.391602 3.43297C0.391602 17.0773 12.7627 28.1151 28.002 28.1151C28.325 28.1153 28.6386 28.0176 28.8915 27.8379C29.1444 27.6582 29.3217 27.4071 29.3944 27.1257L30.8225 21.5935C30.8962 21.3003 30.8533 20.9933 30.7011 20.7254C30.549 20.4574 30.2971 20.2452 29.9888 20.1254Z" fill="#FF9900"/>
</svg>
