<svg width="33" height="31" viewBox="0 0 33 31" fill="none" xmlns="http://www.w3.org/2000/svg">
<path d="M27.6691 4.57924C26.2199 3.19421 24.4952 2.09615 22.5951 1.34882C20.695 0.601499 18.6573 0.219804 16.6004 0.225902C7.97874 0.225902 0.961419 6.88417 0.961419 15.0703C0.961419 17.6861 1.68367 20.2438 3.05122 22.4907L0.831177 30.1844L9.12527 28.1191C11.4182 29.3042 13.9873 29.926 16.5984 29.9278H16.6044C25.226 29.9278 32.2493 23.2696 32.2493 15.0834C32.2545 13.1324 31.8523 11.1998 31.0658 9.39721C30.2793 7.59459 29.1242 5.9577 27.6671 4.58111L27.6691 4.57924ZM16.6044 27.4226C14.2741 27.4229 11.9867 26.8286 9.98172 25.7018L9.50613 25.4322L4.58454 26.6549L5.8988 22.1031L5.59096 21.635C4.2841 19.6704 3.59349 17.3935 3.59982 15.0703C3.604 11.7975 4.97648 8.65999 7.41605 6.3463C9.85562 4.03261 13.163 2.73178 16.6123 2.72931C20.0834 2.72931 23.3533 4.01752 25.8062 6.34492C27.0167 7.4893 27.9762 8.84995 28.6292 10.3482C29.2822 11.8465 29.6159 13.4527 29.6109 15.0741C29.605 21.884 23.7717 27.4226 16.6044 27.4226ZM23.7342 18.1785C23.3454 17.9913 21.4214 17.0963 21.0642 16.9727C20.707 16.8491 20.4465 16.7854 20.1821 17.1599C19.9236 17.5288 19.1717 18.3657 18.9428 18.6166C18.7139 18.8619 18.487 18.8975 18.0982 18.7103C17.7094 18.523 16.4445 18.1317 14.9526 16.8678C13.7923 15.8848 13.0049 14.6677 12.776 14.2989C12.5471 13.93 12.7504 13.7259 12.9497 13.5443C13.1292 13.3795 13.3384 13.1118 13.5358 12.8946C13.7331 12.6774 13.7943 12.5257 13.9245 12.2748C14.0548 12.0295 13.9916 11.8123 13.8929 11.6251C13.7943 11.4379 13.0108 9.61226 12.6912 8.86892C12.3774 8.14242 12.0498 8.24353 11.8091 8.23043C11.5801 8.21919 11.3216 8.21919 11.0631 8.21919C10.8046 8.21919 10.3784 8.31281 10.0212 8.68168C9.664 9.05054 8.65166 9.95117 8.65166 11.7768C8.65166 13.6024 10.0508 15.3643 10.2481 15.6152C10.4455 15.8605 13.0049 19.6109 16.926 21.2155C17.8575 21.5956 18.5856 21.8241 19.152 22.0001C20.0893 22.2809 20.9399 22.2397 21.6128 22.1461C22.3646 22.0413 23.9256 21.2511 24.2532 20.3842C24.5807 19.5173 24.5807 18.7758 24.4821 18.6223C24.3893 18.4575 24.1308 18.3657 23.7361 18.1766L23.7342 18.1785Z" fill="white"/>
</svg>
