<svg width="39" height="29" viewBox="0 0 39 29" fill="none" xmlns="http://www.w3.org/2000/svg">
<path d="M7.43363 3.8536H6.0114L7.12074 4.7436L19.1529 14.3967L19.4658 14.6477L19.7787 14.3967L31.8108 4.7436L32.9202 3.8536H31.4979H7.43363ZM34.818 6.61581V5.57359L34.0051 6.22582L20.3763 17.1607L20.3761 17.1609C20.1298 17.3587 19.8065 17.4726 19.4658 17.4726C19.125 17.4726 18.8018 17.3587 18.5555 17.1609L18.5552 17.1607L4.92647 6.22582L4.11357 5.57359V6.61581V24.7799V25.2799H4.61357H34.318H34.818V24.7799V6.61581ZM1.40051 4.3536C1.40051 3.598 1.7275 2.86357 2.32594 2.31488C2.92584 1.76485 3.74808 1.44922 4.61357 1.44922H34.318C35.1835 1.44922 36.0057 1.76485 36.6056 2.31488C37.2041 2.86357 37.531 3.598 37.531 4.3536V24.7799C37.531 25.5355 37.2041 26.2699 36.6056 26.8186C36.0057 27.3686 35.1835 27.6842 34.318 27.6842H4.61357C3.74808 27.6842 2.92584 27.3686 2.32594 26.8186C1.7275 26.2699 1.40051 25.5355 1.40051 24.7799V4.3536Z" fill="white" stroke="white"/>
</svg>
